# xmcd
#
# Track frame offsets:
#	150
#	18567
#	42398
#	61594
#	77600
#	94456
#	111312
#	126017
#	146421
#	171793
#	198983
#	216131
#	230629
#
# Disc length: 3110 seconds
#
# Revision: 1
# Processed by: cddbd v1.5.2PL0 Copyright (c) Steve Scherf et al.
# Submitted via: audiograbber 1.83.01
#
DISCID=b30c240d
DTITLE=Mojo Perry - Absinthe Journeys
DYEAR=2012
DGENRE=Blues
TTITLE0=Naughty Boy
TTITLE1=No Tomorrow
TTITLE2=Vagabond
TTITLE3=Casual Dismissal
TTITLE4=Story Song
TTITLE5=The Madhatter
TTITLE6=Intermission
TTITLE7=La Fee Verte
TTITLE8=I'll Remember You
TTITLE9=Slow Down
TTITLE10=Tunnel Of Love
TTITLE11=Come Back To Me
TTITLE12=Madness
EXTD=
EXTT0=
EXTT1=
EXTT2=
EXTT3=
EXTT4=
EXTT5=
EXTT6=
EXTT7=
EXTT8=
EXTT9=
EXTT10=
EXTT11=
EXTT12=
PLAYORDER=
